<svg width="81" height="91" viewBox="0 0 81 91" fill="none" xmlns="http://www.w3.org/2000/svg">
<path d="M12.7925 31.7834C13.5341 30.6693 14.7838 30 16.1222 30H64.8778C66.2162 30 67.4659 30.6693 68.2075 31.7834L76.8616 44.7834C78.6313 47.4418 76.7255 51 73.5319 51H7.46805C4.27448 51 2.36868 47.4418 4.13837 44.7834L12.7925 31.7834Z" fill="url(#paint0_linear_2_3)"/>
<path d="M74 51H8V85C8 86.6569 9.34315 88 11 88H71C72.6569 88 74 86.6569 74 85V51Z" fill="url(#paint1_linear_2_3)"/>
<path d="M12.7925 31.7834C13.5341 30.6693 14.7838 30 16.1222 30H64.8778C66.2162 30 67.4659 30.6693 68.2075 31.7834L76.8616 44.7834C78.6313 47.4418 76.7255 51 73.5319 51H7.46805C4.27448 51 2.36868 47.4418 4.13837 44.7834L12.7925 31.7834Z" stroke="#854E1A" stroke-width="5"/>
<path d="M74 51H8V85C8 86.6569 9.34315 88 11 88H71C72.6569 88 74 86.6569 74 85V51Z" stroke="#854E1A" stroke-width="5"/>
<rect x="25" y="39" width="32" height="4" rx="2" fill="#854E1A"/>
<path fill-rule="evenodd" clip-rule="evenodd" d="M41.3277 43H30.8969L14 13.7337L37.7875 0L57.2921 33.7829L41.3277 43Z" fill="#D9D9D9"/>
<defs>
<linearGradient id="paint0_linear_2_3" x1="66" y1="39" x2="18.5" y2="80.5" gradientUnits="userSpaceOnUse">
<stop stop-color="#F9C843"/>
<stop offset="1" stop-color="#CD832F"/>
</linearGradient>
<linearGradient id="paint1_linear_2_3" x1="66" y1="39" x2="18.5" y2="80.5" gradientUnits="userSpaceOnUse">
<stop stop-color="#F9C843"/>
<stop offset="1" stop-color="#CD832F"/>
</linearGradient>
</defs>
</svg>
